<?xml version="1.0" standalone="no"?>
<!DOCTYPE svg PUBLIC "-//W3C//DTD SVG 20010904//EN"
 "http://www.w3.org/TR/2001/REC-SVG-20010904/DTD/svg10.dtd">
<svg version="1.0" xmlns="http://www.w3.org/2000/svg"
 width="1280.000000pt" height="1280.000000pt" viewBox="0 0 1280.000000 1280.000000"
 preserveAspectRatio="xMidYMid meet">
<g transform="translate(0.000000,1280.000000) scale(0.100000,-0.100000)"
fill="#000000" stroke="none">
<path d="M6170 10144 c-1470 -106 -2729 -1037 -3254 -2407 -105 -274 -176
-554 -218 -872 -30 -217 -32 -687 -5 -900 129 -1007 612 -1877 1388 -2496 551
-440 1181 -703 1904 -796 213 -27 683 -25 900 5 467 63 883 193 1272 397 1091
574 1829 1635 1983 2850 20 162 28 290 19 300 -5 4 -1124 -217 -1264 -250 -17
-4 -26 -30 -58 -161 -46 -192 -99 -338 -185 -513 -70 -143 -201 -347 -305
-476 -85 -105 -301 -315 -402 -391 -153 -115 -359 -244 -391 -244 -35 0 -51
193 -22 265 9 22 28 121 42 221 14 102 47 267 76 379 47 188 52 202 88 240 41
42 283 359 301 394 6 11 11 73 11 138 1 69 7 143 15 178 37 148 28 371 -19
462 -13 27 -56 91 -95 143 -45 60 -73 108 -76 130 -30 188 -49 234 -142 330
-88 93 -180 146 -279 162 -56 8 -77 7 -156 -13 l-91 -23 -66 22 c-105 35 -113
35 -325 22 -111 -7 -214 -10 -229 -6 -38 9 -46 32 -59 157 -9 90 -9 116 2 133
16 26 38 239 30 288 -4 20 -14 44 -24 53 -29 29 -36 51 -42 139 -8 102 -30
147 -124 249 -72 78 -106 98 -218 126 -143 37 -249 22 -365 -52 -126 -81 -205
-178 -233 -289 -20 -76 -14 -132 26 -287 17 -62 27 -118 24 -123 -4 -5 -14 -8
-24 -5 -35 9 -41 -6 -29 -64 16 -74 40 -118 97 -177 42 -43 56 -51 93 -54 l44
-3 50 -90 c44 -80 50 -98 53 -160 3 -65 1 -73 -30 -120 -18 -27 -65 -81 -104
-120 -39 -38 -95 -98 -124 -132 l-53 -63 -90 0 c-94 0 -163 -14 -264 -54 -92
-36 -169 -91 -258 -184 l-81 -83 -86 -8 c-125 -12 -198 -48 -301 -154 -86 -86
-125 -114 -151 -104 -8 3 -24 38 -36 79 -35 119 -69 194 -124 268 -95 130
-175 349 -176 478 0 48 3 56 32 80 18 15 46 42 63 60 36 36 46 38 80 16 21
-14 30 -14 55 -4 34 14 70 58 70 85 0 10 18 34 39 55 46 45 68 111 73 213 3
80 7 76 -112 114 -47 15 -89 30 -93 34 -18 14 108 224 236 394 77 101 288 317
392 402 407 329 885 517 1413 555 595 43 1191 -138 1681 -511 105 -80 328
-296 407 -395 197 -245 341 -506 434 -788 23 -68 45 -126 48 -129 4 -3 279 53
612 126 484 105 606 135 608 148 5 24 -63 244 -125 407 -419 1095 -1326 1932
-2449 2260 -334 98 -619 139 -989 144 -143 2 -285 2 -315 0z m-849 -4557 c48
-88 120 -147 225 -181 67 -22 108 -65 339 -358 39 -50 39 -50 38 -137 -1 -47
-3 -123 -5 -168 l-3 -81 -46 -40 c-29 -26 -60 -68 -84 -117 l-39 -76 18 -143
c20 -158 18 -171 -39 -241 l-25 -30 -82 28 c-351 120 -660 311 -932 576 -151
149 -227 240 -344 416 -96 144 -210 361 -196 375 5 4 47 0 94 -11 47 -10 115
-19 151 -19 36 0 112 -7 170 -16 141 -22 247 -14 371 25 113 37 207 103 277
196 53 70 75 71 112 2z"/>
<path d="M9466 7039 c-324 -76 -592 -141 -596 -146 -11 -11 13 -146 25 -149 6
-2 280 63 610 144 485 119 601 151 603 165 2 9 -2 42 -8 72 -9 41 -16 55 -28
54 -9 -1 -282 -64 -606 -140z"/>
<path d="M9535 6761 c-319 -76 -592 -141 -607 -144 -24 -6 -28 -13 -28 -42 0
-18 5 -37 11 -41 10 -6 1207 262 1228 275 13 9 1 91 -13 90 -6 0 -272 -63
-591 -138z"/>
<path d="M9536 6494 c-341 -79 -621 -145 -622 -147 -2 -1 -6 -49 -10 -105 l-7
-103 24 6 c54 13 1234 265 1241 265 9 0 9 176 0 206 -7 21 -21 18 -626 -122z"/>
</g>
</svg>
